<svg width="157" height="59" viewBox="0 0 157 59" fill="none" xmlns="http://www.w3.org/2000/svg">
<g filter="url(#filter0_d_21_716)">
<rect x="14" y="12" width="129" height="31" rx="9" fill="white"/>
<circle cx="37" cy="27.5" r="6" fill="#FF0000"/>
<path d="M58.908 32.64C58.1427 32.64 57.438 32.514 56.794 32.262C56.15 32.01 55.59 31.66 55.114 31.212C54.638 30.7547 54.2693 30.2227 54.008 29.616C53.7467 29 53.616 28.328 53.616 27.6C53.616 26.872 53.7467 26.2047 54.008 25.598C54.2693 24.982 54.638 24.45 55.114 24.002C55.59 23.5447 56.15 23.19 56.794 22.938C57.438 22.686 58.138 22.56 58.894 22.56C59.6593 22.56 60.3593 22.686 60.994 22.938C61.638 23.19 62.198 23.5447 62.674 24.002C63.15 24.45 63.5187 24.982 63.78 25.598C64.0413 26.2047 64.172 26.872 64.172 27.6C64.172 28.328 64.0413 29 63.78 29.616C63.5187 30.232 63.15 30.764 62.674 31.212C62.198 31.66 61.638 32.01 60.994 32.262C60.3593 32.514 59.664 32.64 58.908 32.64ZM58.894 31.044C59.3887 31.044 59.846 30.96 60.266 30.792C60.686 30.624 61.05 30.386 61.358 30.078C61.666 29.7607 61.904 29.3967 62.072 28.986C62.2493 28.566 62.338 28.104 62.338 27.6C62.338 27.096 62.2493 26.6387 62.072 26.228C61.904 25.808 61.666 25.444 61.358 25.136C61.05 24.8187 60.686 24.576 60.266 24.408C59.846 24.24 59.3887 24.156 58.894 24.156C58.3993 24.156 57.942 24.24 57.522 24.408C57.1113 24.576 56.7473 24.8187 56.43 25.136C56.122 25.444 55.8793 25.808 55.702 26.228C55.534 26.6387 55.45 27.096 55.45 27.6C55.45 28.0947 55.534 28.552 55.702 28.972C55.8793 29.392 56.122 29.7607 56.43 30.078C56.738 30.386 57.102 30.624 57.522 30.792C57.942 30.96 58.3993 31.044 58.894 31.044ZM66.1012 32.5V22.7H67.5992L73.7452 30.246H73.0032V22.7H74.8092V32.5H73.3112L67.1652 24.954H67.9072V32.5H66.1012ZM82.0131 32.64C81.2478 32.64 80.5431 32.5187 79.8991 32.276C79.2645 32.024 78.7091 31.674 78.2331 31.226C77.7571 30.7687 77.3885 30.232 77.1271 29.616C76.8658 29 76.7351 28.328 76.7351 27.6C76.7351 26.872 76.8658 26.2 77.1271 25.584C77.3885 24.968 77.7571 24.436 78.2331 23.988C78.7185 23.5307 79.2831 23.1807 79.9271 22.938C80.5711 22.686 81.2758 22.56 82.0411 22.56C82.8718 22.56 83.6185 22.6953 84.2811 22.966C84.9531 23.2367 85.5178 23.6333 85.9751 24.156L84.8271 25.276C84.4445 24.8933 84.0291 24.6133 83.5811 24.436C83.1425 24.2493 82.6571 24.156 82.1251 24.156C81.6118 24.156 81.1358 24.24 80.6971 24.408C80.2585 24.576 79.8805 24.814 79.5631 25.122C79.2458 25.43 78.9985 25.794 78.8211 26.214C78.6531 26.634 78.5691 27.096 78.5691 27.6C78.5691 28.0947 78.6531 28.552 78.8211 28.972C78.9985 29.392 79.2458 29.7607 79.5631 30.078C79.8805 30.386 80.2538 30.624 80.6831 30.792C81.1125 30.96 81.5885 31.044 82.1111 31.044C82.5965 31.044 83.0631 30.9693 83.5111 30.82C83.9685 30.6613 84.4025 30.4 84.8131 30.036L85.8491 31.394C85.3358 31.8047 84.7385 32.1173 84.0571 32.332C83.3851 32.5373 82.7038 32.64 82.0131 32.64ZM84.1271 31.156V27.488H85.8491V31.394L84.1271 31.156ZM92.8416 32.64C92.0763 32.64 91.3716 32.514 90.7276 32.262C90.0836 32.01 89.5236 31.66 89.0476 31.212C88.5716 30.7547 88.2029 30.2227 87.9416 29.616C87.6803 29 87.5496 28.328 87.5496 27.6C87.5496 26.872 87.6803 26.2047 87.9416 25.598C88.2029 24.982 88.5716 24.45 89.0476 24.002C89.5236 23.5447 90.0836 23.19 90.7276 22.938C91.3716 22.686 92.0716 22.56 92.8276 22.56C93.5929 22.56 94.2929 22.686 94.9276 22.938C95.5716 23.19 96.1316 23.5447 96.6076 24.002C97.0836 24.45 97.4523 24.982 97.7136 25.598C97.9749 26.2047 98.1056 26.872 98.1056 27.6C98.1056 28.328 97.9749 29 97.7136 29.616C97.4523 30.232 97.0836 30.764 96.6076 31.212C96.1316 31.66 95.5716 32.01 94.9276 32.262C94.2929 32.514 93.5976 32.64 92.8416 32.64ZM92.8276 31.044C93.3223 31.044 93.7796 30.96 94.1996 30.792C94.6196 30.624 94.9836 30.386 95.2916 30.078C95.5996 29.7607 95.8376 29.3967 96.0056 28.986C96.1829 28.566 96.2716 28.104 96.2716 27.6C96.2716 27.096 96.1829 26.6387 96.0056 26.228C95.8376 25.808 95.5996 25.444 95.2916 25.136C94.9836 24.8187 94.6196 24.576 94.1996 24.408C93.7796 24.24 93.3223 24.156 92.8276 24.156C92.3329 24.156 91.8756 24.24 91.4556 24.408C91.0449 24.576 90.6809 24.8187 90.3636 25.136C90.0556 25.444 89.8129 25.808 89.6356 26.228C89.4676 26.6387 89.3836 27.096 89.3836 27.6C89.3836 28.0947 89.4676 28.552 89.6356 28.972C89.8129 29.392 90.0556 29.7607 90.3636 30.078C90.6716 30.386 91.0356 30.624 91.4556 30.792C91.8756 30.96 92.3329 31.044 92.8276 31.044ZM100.035 32.5V22.7H101.855V32.5H100.035ZM104.505 32.5V22.7H106.003L112.149 30.246H111.407V22.7H113.213V32.5H111.715L105.569 24.954H106.311V32.5H104.505ZM120.417 32.64C119.652 32.64 118.947 32.5187 118.303 32.276C117.669 32.024 117.113 31.674 116.637 31.226C116.161 30.7687 115.793 30.232 115.531 29.616C115.27 29 115.139 28.328 115.139 27.6C115.139 26.872 115.27 26.2 115.531 25.584C115.793 24.968 116.161 24.436 116.637 23.988C117.123 23.5307 117.687 23.1807 118.331 22.938C118.975 22.686 119.68 22.56 120.445 22.56C121.276 22.56 122.023 22.6953 122.685 22.966C123.357 23.2367 123.922 23.6333 124.379 24.156L123.231 25.276C122.849 24.8933 122.433 24.6133 121.985 24.436C121.547 24.2493 121.061 24.156 120.529 24.156C120.016 24.156 119.54 24.24 119.101 24.408C118.663 24.576 118.285 24.814 117.967 25.122C117.65 25.43 117.403 25.794 117.225 26.214C117.057 26.634 116.973 27.096 116.973 27.6C116.973 28.0947 117.057 28.552 117.225 28.972C117.403 29.392 117.65 29.7607 117.967 30.078C118.285 30.386 118.658 30.624 119.087 30.792C119.517 30.96 119.993 31.044 120.515 31.044C121.001 31.044 121.467 30.9693 121.915 30.82C122.373 30.6613 122.807 30.4 123.217 30.036L124.253 31.394C123.74 31.8047 123.143 32.1173 122.461 32.332C121.789 32.5373 121.108 32.64 120.417 32.64ZM122.531 31.156V27.488H124.253V31.394L122.531 31.156Z" fill="#523A33"/>
</g>
<defs>
<filter id="filter0_d_21_716" x="0" y="0" width="157" height="59" filterUnits="userSpaceOnUse" color-interpolation-filters="sRGB">
<feFlood flood-opacity="0" result="BackgroundImageFix"/>
<feColorMatrix in="SourceAlpha" type="matrix" values="0 0 0 0 0 0 0 0 0 0 0 0 0 0 0 0 0 0 127 0" result="hardAlpha"/>
<feMorphology radius="2" operator="dilate" in="SourceAlpha" result="effect1_dropShadow_21_716"/>
<feOffset dy="2"/>
<feGaussianBlur stdDeviation="6"/>
<feComposite in2="hardAlpha" operator="out"/>
<feColorMatrix type="matrix" values="0 0 0 0 0 0 0 0 0 0 0 0 0 0 0 0 0 0 0.1 0"/>
<feBlend mode="normal" in2="BackgroundImageFix" result="effect1_dropShadow_21_716"/>
<feBlend mode="normal" in="SourceGraphic" in2="effect1_dropShadow_21_716" result="shape"/>
</filter>
</defs>
</svg>
